<?xml version="1.0" encoding="UTF-8" standalone="no"?>
<!-- Created with Inkscape (http://www.inkscape.org/) -->

<svg
   width="512mm"
   height="512mm"
   viewBox="0 0 512 512"
   version="1.1"
   id="svg5"
   inkscape:version="1.1 (c68e22c387, 2021-05-23)"
   sodipodi:docname="logo.svg"
   xmlns:inkscape="http://www.inkscape.org/namespaces/inkscape"
   xmlns:sodipodi="http://sodipodi.sourceforge.net/DTD/sodipodi-0.dtd"
   xmlns="http://www.w3.org/2000/svg"
   xmlns:svg="http://www.w3.org/2000/svg">
  <sodipodi:namedview
     id="namedview7"
     pagecolor="#ffffff"
     bordercolor="#666666"
     borderopacity="1.0"
     inkscape:pageshadow="2"
     inkscape:pageopacity="0.0"
     inkscape:pagecheckerboard="0"
     inkscape:document-units="mm"
     showgrid="false"
     inkscape:zoom="0.18752455"
     inkscape:cx="-39.994763"
     inkscape:cy="1351.823"
     inkscape:window-width="1920"
     inkscape:window-height="1027"
     inkscape:window-x="-8"
     inkscape:window-y="-8"
     inkscape:window-maximized="1"
     inkscape:current-layer="layer1" />
  <defs
     id="defs2" />
  <g
     inkscape:label="레이어 1"
     inkscape:groupmode="layer"
     id="layer1"
     transform="translate(168.76604,120.26362)">
    <path
       style="fill:#000000;stroke-width:0.264583"
       id="path2519"
       d="" />
    <path
       style="fill:#000000;stroke-width:0.264583"
       id="path2499"
       d="" />
    <path
       style="fill:#000000;stroke-width:0.264583"
       id="path2479"
       d="" />
    <path
       style="fill:#cbbdab;fill-opacity:1;stroke-width:1.29222"
       d="m -22.651478,380.86854 c -8.89865,-20.08204 -19.45541,-39.21258 -30.5154,-58.04967 -6.19387,-7.00341 -7.846804,-18.37203 -15.323524,-23.52081 -10.57014,-4.33613 -10.96498,-18.77941 -15.7336,-28.12445 -7.1115,-19.76102 -0.74291,-40.1279 5.38724,-59.17972 2.68041,-18.1269 2.98288,8.61389 7.7173,-0.97152 7.06872,-17.69362 15.350564,-35.20321 22.469564,-52.73561 7.43013,-11.03419 16.94663,-21.8181 26.24802,-31.78603 -2.48465,5.437 -5.2936,20.13541 3.11506,10.3289 13.4506602,-15.01825 25.6403102,-31.14384 40.0942,-45.241928 3.14921,4.65426 -8.24739,23.331588 4.12292,11.591678 20.93336,-18.555528 41.71462,-37.191444 63.01399,-55.319564 22.205728,19.03987 44.066708,38.517076 65.381758,58.562984 9.36092,2.36645 -5.48327,-18.887118 3.36232,-12.718198 14.4592,15.826258 28.06041,32.717258 42.15025,48.988008 8.53724,0.65996 -7.72174,-21.64596 2.51671,-12.34225 10.00181,12.88774 23.6039,23.47416 27.57485,39.99484 5.6956,14.6399 11.84714,29.0922 17.88398,43.59169 4.91825,-8.46579 6.83374,-5.21482 9.24229,5.05523 5.91762,16.63328 8.09051,34.74583 2.64222,51.79399 -2.8908,9.49171 -6.69561,19.04144 -12.20602,27.34861 -8.90348,-1.15463 -9.77637,11.80821 -14.85526,17.23992 -11.9302,20.96784 -24.9376,41.33663 -34.09744,63.71212 -6.24942,6.73816 -4.90768,18.01317 2.96899,6.8562 20.09857,-22.48124 39.17224,-45.91315 60.68968,-67.08265 4.95654,2.61138 -2.78531,14.49073 -3.23979,20.78611 -4.01583,13.72919 8.73173,-0.78812 12.45767,-5.23974 10.81263,-12.3848 21.6675,-25.4528 26.83803,-41.3405 5.91382,2.02784 7.57464,21.48244 13.14259,14.41509 -0.0507,-14.35634 2.98649,-29.224 -4.32467,-42.37798 -7.45601,-11.81022 2.17152,-9.28432 9.20277,-2.8898 9.57447,4.86497 17.96901,13.46594 27.95873,16.49096 -0.37321,-9.03821 -9.25759,-15.56149 -12.66147,-23.90969 -11.95544,-20.24003 -25.61863,-39.43974 -36.5459,-60.28813 11.5054,1.39438 20.76206,12.32986 32.44915,12.95354 -2.25537,-8.33458 -11.71744,-13.89192 -16.18964,-21.70407 -17.44593,-21.33263 -36.56232,-41.25106 -53.4213,-63.09393 0.91557,-6.86922 14.02548,5.07569 19.73404,5.6014 12.18964,8.51074 10.74037,-0.69462 2.73206,-7.79154 -22.90762,-30.653668 -51.8303,-55.985344 -77.89702,-83.824514 3.95415,-3.14585 14.94237,4.76882 21.52719,6.0149 11.0499,0.87474 -5.3357,-10.82978 -7.96613,-14.55907 -14.82665,-15.6482 -30.01141,-30.8789502 -48.16955,-42.643641 -10.32697,-4.08541 -8.29348,-10.94612 2.77002,-8.57202 8.23297,-5.68675 -9.42616,-8.10417 -13.63805,-12.007089 -22.08578,-10.86556 -44.351,-21.72159 -66.983968,-30.73948 -19.01286,4.79966 -36.55053,15.66226 -54.68674,23.49487 -10.04327,4.83746 -20.01594,9.822599 -30.0315398,14.717979 -1.98701,8.02399 19.9324398,2.38316 9.7320398,10.11194 -16.7763498,11.3850808 -32.78275,23.6716308 -46.09548,39.111901 -5.60844,7.34123 -15.43899,12.38093 -18.01929,21.37283 7.18064,-0.32851 13.42445,-5.65525 21.12534,-6.79138 9.7012,-1.13328 -7.53709,10.46627 -10.05171,14.20761 -25.062424,25.858216 -51.635794,50.683224 -71.821142,80.748464 6.94146,0.80458 15.349338,-6.17798 22.855478,-8.37204 13.79927,-6.99597 0.21681,8.00226 -3.79,12.3707 -19.357078,23.60022 -39.643178,46.4178 -58.615448,70.3365 5.89443,4.63932 14.33476,-5.67288 21.2388,-6.96273 12.81016,-9.04379 8.60764,2.16346 2.70448,9.62008 -13.24993,21.56841 -27.12714,42.68665 -40.36922,64.26143 -7.38439,11.85233 8.66367,1.50071 13.03925,-1.52705 8.13426,-5.06482 16.87988,-9.21667 24.25257,-15.41878 3.99985,5.54049 -6.5491,14.13651 -5.89628,21.7523 -2.79287,10.54999 -2.41693,21.14277 -0.20756,31.76027 7.57601,2.04865 6.53327,-14.65371 12.43721,-17.27806 1.72669,5.2297 5.65808,13.80037 8.99833,20.07797 8.94056,12.33956 18.560528,24.10381 29.235968,34.97448 3.47794,-6.90844 -3.15044,-16.71128 -3.71186,-24.77654 -0.69043,-10.11936 10.45234,6.67666 14.39713,9.4639 18.777494,19.5412 34.741304,41.7895 54.549894,60.33861 2.16451,-3.73967 -1.97356,-7.2697 -2.89498,-10.86783 z m 72.06826,-38.3681 c 12.19935,-21.44641 24.75762,-42.6963 37.55478,-63.79599 6.09863,4.07063 8.45383,14.42576 13.120958,20.89955 9.58456,17.26602 19.51104,34.33958 29.03231,51.64129 7.93747,-0.67723 8.37494,-13.73873 13.31984,-19.35741 23.4589,-45.63712 46.17665,-91.65493 69.31788,-137.45518 -7.47218,-2.93499 -13.77042,6.92504 -20.75319,9.32423 -9.94607,6.96425 -21.7574,12.07773 -31.10186,19.26469 -9.27215,19.55197 -19.03858,38.86072 -28.59118,58.27473 -5.95445,-3.17822 -8.24222,-12.82126 -12.50151,-18.73075 -9.69345,-16.877 -19.808188,-34.16446 -29.633088,-50.35708 -4.83684,-5.37981 -7.52013,11.24789 -12.14507,14.67633 -11.09931,18.22355 -22.06074,36.52807 -32.67843,55.03757 -10.87753,-19.22429 -19.82744,-39.81638 -29.96713,-59.56429 -16.3399498,-9.52436 -32.27736,-20.49662 -48.86077,-29.14541 1.50229,12.18294 9.94827,22.83647 14.37214,34.33248 20.6055602,41.48042 41.74717,82.68223 63.19708,123.71429 3.48564,-1.54918 4.18616,-5.87493 6.31724,-8.75905 z M -79.035642,55.163926 c 7.17922,-7.58528 -9.35635,-10.52282 -10.85254,-17.64402 -9.68711,-8.10698 4.44935,-7.38495 -0.72707,-13.38036 -5.96742,-12.34161 -11.713448,-24.79255019 -17.853338,-37.04894 6.47573,-7.376061 -3.66376,-15.948901 -5.36453,-23.89964 -5.79889,-14.52015 -13.83123,-29.55265 -16.63145,-44.42066 9.72731,4.91613 19.41749,14.92649 28.52272,22.43924 16.102138,15.14438 33.328868,29.010479 49.567522,43.998859 -3.87706,7.6279208 4.71084,15.15848081 8.68146,20.1770408 9.65204,-7.03681 18.08487,-17.1199498 27.27064,-25.3217208 1.09726,-5.66311 14.8323502,-9.64407 1.77005,-14.463269 -14.11571,-7.58937 -24.89985,-20.97242 -38.2252,-28.86864 -4.87064,9.52828 -13.217334,-6.26056 -20.526004,-7.59939 -18.45193,-12.0589 -38.032248,-21.59663 -55.059418,-35.147186 -10.86047,0.33986 -18.96457,-10.49806 -28.24988,-14.24886 -4.4323,3.96442 4.12233,14.3306 4.84716,20.45487 3.19711,7.866876 6.56567,16.271386 9.1121,23.846126 -5.87879,4.43398 0.7222,14.31157 3.7747,21.46274 2.26307,7.93279 10.00707,16.30164 7.86873,24.184939 -2.57971,5.41941 4.18967,10.91154 6.1662,16.746321 -4.83581,4.2176498 -6.64114,4.3868998 -0.15688,13.41209981 5.25755,14.11762019 11.51948,27.81596019 16.50838,42.03595019 9.308688,4.65685 17.469748,13.23966 27.531288,15.32097 l 1.02242,-1.02739 1.00328,-1.00815 z m 348.966722,-4.60358 c 7.626,-4.90791 16.59949,-8.97251 17.82825,-19.06376 5.20346,-14.32334 10.97346,-28.8382602 16.79574,-42.62689 -8.35156,-2.09796 1.78881,-11.806371 2.28319,-18.580221 -2.64422,-9.334479 6.10944,-17.721799 8.39872,-26.646229 6.9743,-9.04669 2.87131,-14.88533 3.98352,-22.57404 5.1204,-12.95127 9.83362,-26.069626 15.42393,-38.828056 -5.94266,-5.21289 -14.00301,6.85928 -20.79933,8.61458 -29.17779,15.888186 -57.14178,33.848796 -85.3865,51.332826 -6.16893,-7.27709 -12.53138,6.12449 -18.92209,8.51985 -8.64861,6.70413 -17.24271,13.48135 -26.14589,19.844469 0.61569,7.66554 11.44835,10.30191 15.8711,16.225231 5.95363,5.7160098 11.90721,11.4319798 17.86079,17.1479898 6.9836,-3.05458999 10.60717,-12.82528 9.71912,-18.8883108 24.95577,-23.425039 52.73306,-43.475049 77.67738,-66.920219 2.25484,7.163 -5.45676,16.50591 -7.22731,24.48938 -4.77266,13.36149 -12.61562,26.774049 -15.46471,40.103529 4.75649,7.4119108 -4.60029,14.7100008 -6.30857,22.0698008 -3.29426,7.8488202 -8.23974,15.1018702 -9.81666,23.5703502 9.23166,2.49055 -3.92496,11.76117 -7.02224,15.97725 -10.528,3.87004 -2.16523,16.05891 5.47962,9.99559 1.92124,-1.25353 3.86639,-2.5143 5.77194,-3.76312 z"
       id="path8202"
       sodipodi:nodetypes="cccccccccccccccccccccccccccccccccccccccccccccccccccccccccccccccccccccccccccccccccccccccccccccccccccccccccccccccccccccccccccccccccccccccccccccccccccccccccccccccccccccccccccccccccccccccccccccccccccccccccccccccccccccccccccccccccccccccccccccccccccccccccccccccccccccccccccccccccccccccccccccccccccccccccccccccccccccccccccccccccccccccccccccccccccccccccccccccccccccccccccccccccccccccccccccccccccccccccccccccccccccccccccccccccccccccccccccccccccccccccccccccccccccccccccccccccccccccccccccccccccccccccccccccccccccccccccccccccccccccccccccccccccccccccccccccccccccccccccccccccccccccccccccccccccccccccccccccccccccccccccccccccccccccccccccccccccccccccccccccccccccccccccccccccccccccccccccccccccccc" />
  </g>
</svg>
